<svg width="108" height="110" viewBox="0 0 108 110" fill="none" xmlns="http://www.w3.org/2000/svg">
<path d="M37.0703 79.4804V3.69824L59.5086 79.4804V3.69824" stroke="#5D6374" stroke-width="1.69346"/>
<path d="M89.8848 41.4834C89.8848 63.3453 72.1622 81.068 50.3002 81.068C28.4383 81.068 10.7157 63.3453 10.7157 41.4834C10.7157 19.6215 28.4383 1.89886 50.3002 1.89886C72.1622 1.89886 89.8848 19.6215 89.8848 41.4834Z" stroke="#5D6374" stroke-width="1.90514"/>
<path d="M80.6769 40.0018C80.6769 46.9704 79.6089 53.2413 77.9105 57.7394C77.0601 59.9915 76.068 61.7553 75.0095 62.9411C73.9503 64.1275 72.8951 64.6628 71.8921 64.6628C70.889 64.6628 69.8338 64.1275 68.7747 62.9411C67.7161 61.7553 66.7241 59.9915 65.8737 57.7394C64.1753 53.2413 63.1073 46.9704 63.1073 40.0018C63.1073 33.0333 64.1753 26.7623 65.8737 22.2643C66.7241 20.0122 67.7161 18.2483 68.7747 17.0626C69.8338 15.8761 70.889 15.3409 71.8921 15.3409C72.8951 15.3409 73.9503 15.8761 75.0095 17.0626C76.068 18.2483 77.0601 20.0122 77.9105 22.2643C79.6089 26.7623 80.6769 33.0333 80.6769 40.0018Z" stroke="#5D6374" stroke-width="1.69346"/>
<path d="M33.6831 66.9912C30.5079 66.9912 17.3836 57.2409 17.3836 41.166C17.3836 25.091 32.6247 16.1875 35.3766 16.1875" stroke="#5D6374" stroke-width="1.69346" stroke-linecap="round"/>
<path d="M37.2832 39.79L17.5952 39.79" stroke="#5D6374" stroke-width="1.69346"/>
<path d="M4.97071 106.124C4.81265 106.124 4.67153 106.073 4.54735 105.972C4.43445 105.87 4.35542 105.74 4.31026 105.582L0.838676 93.8465C0.759648 93.5755 0.770937 93.3497 0.872545 93.1691C0.985442 92.9884 1.16043 92.8981 1.39752 92.8981C1.53299 92.8981 1.65718 92.9376 1.77008 93.0167C1.89426 93.0844 1.98458 93.2142 2.04103 93.4062L5.17392 104.312H4.78443L7.74798 93.6941C7.78185 93.5699 7.85523 93.4683 7.96813 93.3892C8.09231 93.3102 8.22779 93.2707 8.37456 93.2707C8.51003 93.2707 8.63986 93.3102 8.76405 93.3892C8.88824 93.457 8.96727 93.5642 9.00113 93.711L11.9816 104.312H11.5921L14.742 93.3384C14.821 93.0449 15.0355 92.8981 15.3855 92.8981C15.6225 92.8981 15.7863 92.9941 15.8766 93.186C15.9669 93.3667 15.9782 93.5868 15.9104 93.8465L12.4558 105.565C12.3993 105.746 12.309 105.887 12.1848 105.989C12.0719 106.079 11.9365 106.124 11.7784 106.124C11.6203 106.124 11.4792 106.073 11.355 105.972C11.2421 105.87 11.1631 105.74 11.118 105.582L8.17134 94.8287H8.57777L5.64809 105.565C5.59164 105.735 5.50133 105.87 5.37714 105.972C5.26424 106.073 5.12877 106.124 4.97071 106.124ZM17.0478 106.124C16.7882 106.124 16.6019 106.017 16.489 105.802C16.3761 105.588 16.3648 105.379 16.4551 105.176L21.4339 93.3554C21.5581 93.0505 21.7726 92.8981 22.0774 92.8981C22.3709 92.8981 22.5798 93.0505 22.704 93.3554L27.6997 105.193C27.8013 105.407 27.7843 105.616 27.6489 105.819C27.5247 106.022 27.344 106.124 27.107 106.124C26.9715 106.124 26.8473 106.09 26.7344 106.022C26.6328 105.955 26.5481 105.853 26.4804 105.718L21.8234 94.4222H22.3483L17.6575 105.718C17.601 105.853 17.5164 105.955 17.4035 106.022C17.3018 106.09 17.1833 106.124 17.0478 106.124ZM18.1655 102.974L18.6735 101.84H25.549L26.057 102.974H18.1655ZM33.1026 106.124C32.922 106.124 32.7639 106.062 32.6284 105.938C32.5042 105.802 32.4421 105.644 32.4421 105.464V92.8981H33.763V105.464C33.763 105.644 33.7009 105.802 33.5768 105.938C33.4526 106.062 33.2945 106.124 33.1026 106.124ZM28.4286 94.1005C28.248 94.1005 28.1012 94.044 27.9884 93.9311C27.8755 93.8182 27.819 93.6771 27.819 93.5078C27.819 93.3271 27.8755 93.1804 27.9884 93.0675C28.1012 92.9546 28.248 92.8981 28.4286 92.8981H37.7935C37.9741 92.8981 38.1209 92.9546 38.2338 93.0675C38.3467 93.1804 38.4031 93.3271 38.4031 93.5078C38.4031 93.6771 38.3467 93.8182 38.2338 93.9311C38.1209 94.044 37.9741 94.1005 37.7935 94.1005H28.4286ZM46.3872 106.293C45.4728 106.293 44.6147 106.118 43.8132 105.768C43.0229 105.418 42.3229 104.933 41.7133 104.312C41.1149 103.68 40.6464 102.957 40.3077 102.144C39.969 101.32 39.7997 100.44 39.7997 99.5026C39.7997 98.5769 39.9634 97.7075 40.2908 96.8947C40.6295 96.0705 41.098 95.348 41.6964 94.7271C42.306 94.1061 43.006 93.6207 43.7962 93.2707C44.5978 92.9094 45.4615 92.7288 46.3872 92.7288C47.2001 92.7288 47.9396 92.8473 48.6057 93.0844C49.2717 93.3215 49.9153 93.6997 50.5362 94.219C50.6378 94.2981 50.6942 94.394 50.7055 94.5069C50.7281 94.6085 50.7168 94.7101 50.6717 94.8117C50.6265 94.9021 50.5588 94.9698 50.4685 95.015C50.4459 95.1053 50.3894 95.173 50.2991 95.2182C50.2088 95.2633 50.1015 95.2803 49.9774 95.269C49.8645 95.2577 49.7516 95.2069 49.6387 95.1166C49.1984 94.7327 48.7185 94.4505 48.1992 94.2698C47.6799 94.0779 47.0759 93.9819 46.3872 93.9819C45.6534 93.9819 44.9647 94.1287 44.3212 94.4222C43.689 94.7158 43.1301 95.1166 42.6447 95.6246C42.1592 96.1326 41.7754 96.7197 41.4931 97.3858C41.2222 98.0519 41.0867 98.7575 41.0867 99.5026C41.0867 100.27 41.2222 100.987 41.4931 101.653C41.7754 102.319 42.1592 102.906 42.6447 103.414C43.1301 103.923 43.689 104.323 44.3212 104.617C44.9647 104.899 45.6534 105.04 46.3872 105.04C47.0082 105.04 47.5952 104.939 48.1484 104.735C48.7016 104.532 49.2266 104.239 49.7233 103.855C49.8588 103.742 49.9999 103.697 50.1467 103.719C50.3048 103.742 50.4402 103.81 50.5531 103.923C50.666 104.035 50.7225 104.182 50.7225 104.363C50.7225 104.453 50.7055 104.538 50.6717 104.617C50.6491 104.685 50.6039 104.758 50.5362 104.837C49.9604 105.368 49.3169 105.746 48.6057 105.972C47.8944 106.186 47.1549 106.293 46.3872 106.293ZM55.0336 106.124C54.8417 106.124 54.6837 106.062 54.5595 105.938C54.4353 105.814 54.3732 105.656 54.3732 105.464V93.5586C54.3732 93.3667 54.4353 93.2086 54.5595 93.0844C54.6837 92.9602 54.8417 92.8981 55.0336 92.8981C55.2256 92.8981 55.3836 92.9602 55.5078 93.0844C55.632 93.2086 55.6941 93.3667 55.6941 93.5586V98.8422H63.9582V93.5586C63.9582 93.3667 64.0202 93.2086 64.1444 93.0844C64.2686 92.9602 64.4267 92.8981 64.6186 92.8981C64.8105 92.8981 64.9686 92.9602 65.0928 93.0844C65.217 93.2086 65.2791 93.3667 65.2791 93.5586V105.464C65.2791 105.656 65.217 105.814 65.0928 105.938C64.9686 106.062 64.8105 106.124 64.6186 106.124C64.4267 106.124 64.2686 106.062 64.1444 105.938C64.0202 105.814 63.9582 105.656 63.9582 105.464V100.028H55.6941V105.464C55.6941 105.656 55.632 105.814 55.5078 105.938C55.3836 106.062 55.2256 106.124 55.0336 106.124ZM75.5372 106.293C74.6227 106.293 73.7647 106.118 72.9631 105.768C72.1728 105.418 71.4729 104.933 70.8632 104.312C70.2649 103.68 69.7963 102.957 69.4577 102.144C69.119 101.32 68.9496 100.44 68.9496 99.5026C68.9496 98.5769 69.1133 97.7075 69.4407 96.8947C69.7794 96.0705 70.2479 95.348 70.8463 94.7271C71.4559 94.1061 72.1559 93.6207 72.9462 93.2707C73.7477 92.9094 74.6114 92.7288 75.5372 92.7288C76.35 92.7288 77.0895 92.8473 77.7556 93.0844C78.4217 93.3215 79.0652 93.6997 79.6861 94.219C79.7877 94.2981 79.8442 94.394 79.8555 94.5069C79.8781 94.6085 79.8668 94.7101 79.8216 94.8117C79.7764 94.9021 79.7087 94.9698 79.6184 95.015C79.5958 95.1053 79.5394 95.173 79.449 95.2182C79.3587 95.2633 79.2515 95.2803 79.1273 95.269C79.0144 95.2577 78.9015 95.2069 78.7886 95.1166C78.3483 94.7327 77.8685 94.4505 77.3492 94.2698C76.8298 94.0779 76.2258 93.9819 75.5372 93.9819C74.8033 93.9819 74.1147 94.1287 73.4711 94.4222C72.8389 94.7158 72.2801 95.1166 71.7946 95.6246C71.3092 96.1326 70.9253 96.7197 70.6431 97.3858C70.3721 98.0519 70.2366 98.7575 70.2366 99.5026C70.2366 100.27 70.3721 100.987 70.6431 101.653C70.9253 102.319 71.3092 102.906 71.7946 103.414C72.2801 103.923 72.8389 104.323 73.4711 104.617C74.1147 104.899 74.8033 105.04 75.5372 105.04C76.1581 105.04 76.7452 104.939 77.2984 104.735C77.8516 104.532 78.3765 104.239 78.8733 103.855C79.0087 103.742 79.1499 103.697 79.2966 103.719C79.4547 103.742 79.5902 103.81 79.7031 103.923C79.816 104.035 79.8724 104.182 79.8724 104.363C79.8724 104.453 79.8555 104.538 79.8216 104.617C79.799 104.685 79.7539 104.758 79.6861 104.837C79.1104 105.368 78.4668 105.746 77.7556 105.972C77.0443 106.186 76.3049 106.293 75.5372 106.293ZM89.6365 106.293C88.6543 106.293 87.7511 106.124 86.927 105.785C86.1028 105.447 85.3859 104.972 84.7763 104.363C84.1779 103.753 83.7094 103.036 83.3707 102.212C83.0433 101.388 82.8796 100.485 82.8796 99.5026C82.8796 98.5317 83.0433 97.6342 83.3707 96.81C83.7094 95.9859 84.1779 95.269 84.7763 94.6593C85.3859 94.0497 86.1028 93.5755 86.927 93.2368C87.7511 92.8981 88.6543 92.7288 89.6365 92.7288C90.6074 92.7288 91.505 92.8981 92.3291 93.2368C93.1533 93.5755 93.8701 94.0497 94.4798 94.6593C95.0894 95.269 95.558 95.9859 95.8854 96.81C96.2241 97.6342 96.3934 98.5317 96.3934 99.5026C96.3934 100.485 96.2241 101.388 95.8854 102.212C95.558 103.036 95.0894 103.753 94.4798 104.363C93.8701 104.972 93.1533 105.447 92.3291 105.785C91.505 106.124 90.6074 106.293 89.6365 106.293ZM89.6365 105.04C90.4155 105.04 91.138 104.905 91.8041 104.634C92.4702 104.352 93.046 103.962 93.5315 103.465C94.0282 102.957 94.4121 102.37 94.683 101.704C94.954 101.027 95.0894 100.293 95.0894 99.5026C95.0894 98.7236 94.954 98.0011 94.683 97.335C94.4121 96.6576 94.0282 96.0705 93.5315 95.5738C93.046 95.0658 92.4702 94.6763 91.8041 94.4053C91.138 94.1231 90.4155 93.9819 89.6365 93.9819C88.8462 93.9819 88.118 94.1231 87.4519 94.4053C86.7859 94.6763 86.2044 95.0658 85.7077 95.5738C85.2222 96.0705 84.844 96.6576 84.5731 97.335C84.3021 98.0011 84.1666 98.7236 84.1666 99.5026C84.1666 100.293 84.3021 101.027 84.5731 101.704C84.844 102.37 85.2222 102.957 85.7077 103.465C86.2044 103.962 86.7859 104.352 87.4519 104.634C88.118 104.905 88.8462 105.04 89.6365 105.04ZM99.1762 106.395C98.9053 106.395 98.6738 106.299 98.4819 106.107C98.29 105.915 98.194 105.684 98.194 105.413C98.194 105.131 98.29 104.893 98.4819 104.702C98.6851 104.51 98.9166 104.414 99.1762 104.414C99.4472 104.414 99.6786 104.515 99.8705 104.718C100.062 104.91 100.158 105.142 100.158 105.413C100.158 105.672 100.062 105.904 99.8705 106.107C99.6899 106.299 99.4585 106.395 99.1762 106.395Z" fill="#5D6374"/>
</svg>
